<svg width="560" height="423" viewBox="0 0 560 423" fill="none" xmlns="http://www.w3.org/2000/svg">
<path d="M36.246 245.735L293.72 394.701C297.585 396.931 301.971 398.092 306.43 398.068C310.889 398.043 315.262 396.833 319.102 394.561L523.81 273.04C524.782 272.462 525.587 271.641 526.147 270.657C526.706 269.673 527 268.56 527 267.427C527 266.295 526.706 265.182 526.147 264.198C525.587 263.214 524.782 262.392 523.81 261.815C478.296 235.535 286.552 124.789 255.36 107.068C254.07 106.322 252.607 105.929 251.118 105.929C249.629 105.929 248.166 106.322 246.876 107.068L36.19 231.017C34.9052 231.769 33.8401 232.846 33.1018 234.14C32.3635 235.435 31.9778 236.901 31.9835 238.392C31.9892 239.883 32.386 241.347 33.1341 242.636C33.8823 243.925 34.9555 244.993 36.246 245.735V245.735Z" fill="#DAF2E9"/>
<path d="M291.298 330.215L238.952 361.083C238.952 361.083 246.456 366.892 276.444 384.739L288.862 391.923L336.462 353.549" fill="url(#paint0_linear)"/>
<path d="M424.592 252.442L350.896 296.808C350.896 296.808 372.988 309.436 402.976 327.339L437.976 298.183L466.34 272.366" fill="url(#paint1_linear)"/>
<path d="M115.234 214.966L49.84 251.544C49.84 251.544 163.24 318.682 193.186 336.543L260.596 294.451" fill="url(#paint2_linear)"/>
<path d="M189.56 15.0676L211.47 26.7834L151.634 83.2577L98.868 99.8703L81.312 75.9897" fill="#FFE8BC"/>
<path d="M106.946 87.8458L86.604 76.2423L189.56 15.0676L187.138 13.6646L81.312 75.9897V235.156L104.398 248.317L113.204 239.113" fill="#68E1FD"/>
<path opacity="0.42" d="M106.946 87.8458L86.604 76.2423L189.56 15.0676L187.138 13.6646L81.312 75.9897V235.156L104.398 248.317L113.204 239.113" fill="#1371A5"/>
<path d="M211.47 26.7834L104.398 89.3471V248.317L213.164 183.172L211.47 26.7834Z" fill="#68E1FD"/>
<path d="M108.444 78.9081L114.982 83.0612V116.96L119.126 111.628L122.038 114.925V79.0344L115.934 74.6287L108.444 78.9081Z" fill="#E85858"/>
<path d="M119.392 249.622C118.874 249.622 114.254 247.77 118.146 244.781C120.728 242.77 123.43 240.919 126.238 239.239" fill="#E27825"/>
<path d="M119.392 225.054C119.392 225.054 123.284 239.492 119.392 247.195L172.298 278.371L224.63 308.72V286.271" fill="#FFE8BC"/>
<path d="M117.6 222.809C117.721 223.81 117.847 224.811 117.978 225.811L224.588 286.285V308.734L118.09 246.437C118.09 247.321 118.09 248.205 118.09 249.103L228.76 313.294V282.707L117.6 222.809Z" fill="#E27825"/>
<path d="M118.216 223.202L228.172 286.341L382.452 195.561L274.862 133.671C273.234 132.735 271.388 132.248 269.512 132.26C267.635 132.273 265.795 132.784 264.18 133.741L118.202 220.452C117.965 220.595 117.769 220.797 117.633 221.039C117.498 221.28 117.427 221.553 117.428 221.831C117.43 222.108 117.503 222.38 117.641 222.621C117.779 222.861 117.977 223.061 118.216 223.202V223.202Z" fill="#FDBA45"/>
<path d="M228.732 313.28C228.732 313.28 382.914 222.276 382.452 221.841C381.99 221.406 382.452 195.505 382.452 195.505L228.2 286.285L228.732 313.28Z" fill="#E27825"/>
<path d="M118.202 220.452C117.75 220.778 117.373 221.197 117.095 221.681C116.818 222.165 116.646 222.702 116.592 223.258C116.41 225.138 118.412 226.064 119.112 226.443" fill="#FDBA45"/>
<path d="M432.698 353.899C432.678 353.778 432.616 353.668 432.522 353.588C432.428 353.509 432.31 353.465 432.187 353.465C432.064 353.465 431.946 353.509 431.852 353.588C431.758 353.668 431.696 353.778 431.676 353.899" fill="#7A9F36"/>
<path d="M404.642 242.635L433.23 257.718L434.084 264.789L403.83 247.686" fill="#E27623"/>
<path d="M403.48 231.143L391.706 273.699L393.862 274.948C394.421 274.654 394.959 274.321 395.472 273.951C396.102 273.46 410.746 229.221 410.746 229.221" fill="#E27623"/>
<path d="M430.64 222.781L438.676 247.91L437.99 298.183L436.184 299.375L433.692 297.818L431.844 247.882L424.592 222.781" fill="#E27623"/>
<path d="M399.084 219.764C399.084 219.764 398.188 225.377 400.106 228.421C402.024 231.466 407.106 223.819 407.106 223.819" fill="#FFB469"/>
<path d="M425.726 189.387L424.592 209.746L429.912 212.51L430.906 190.692" fill="#CA6B00"/>
<path d="M459.158 204.372L462.742 231.887L466.354 272.366L464.03 273.755L461.72 272.296L456.568 232.518L453.11 204.372" fill="#E27623"/>
<path d="M455.546 207.81C457.044 208.273 460.264 205.902 461.23 204.372C466.508 196.052 464.982 184.729 455.49 179.496C451.29 177.166 446.936 174.837 442.75 172.48C439.026 170.347 435.092 168.537 431.55 166.222C431.081 165.895 430.579 165.618 430.052 165.394C429.07 165.131 428.031 165.166 427.069 165.496C426.106 165.826 425.264 166.435 424.648 167.247" fill="#FFB469"/>
<path d="M455.938 207.445C458.486 207.361 459.942 203.979 460.684 201.987C462.742 196.529 463.148 186.146 456.946 183.031C456.829 182.979 456.728 182.897 456.652 182.794C456.576 182.691 456.527 182.569 456.512 182.442L444.598 175.553L435.386 170.221C433.776 169.295 432.25 168.229 430.64 167.289C429.03 166.349 427.448 165.268 425.67 166.335C423.892 167.401 423.458 169.716 423.15 171.779C422.347 176.536 422.596 181.411 423.878 186.062C424.989 189.018 427.175 191.444 429.996 192.853L438.55 197.82L454.412 206.996C454.669 207.159 454.947 207.286 455.238 207.375C455.467 207.433 455.703 207.457 455.938 207.445V207.445Z" fill="#FCBD4C"/>
<path d="M457.674 229.488L458.164 229.768C459.507 230.43 460.713 231.339 461.72 232.448C464.128 235.479 461.804 238.93 459.41 241.049C452.956 246.802 443.17 251.502 434.42 249.383C426.845 247.34 419.622 244.156 413 239.941C407.526 236.643 400.68 232.659 399.252 225.91C399.002 224.4 399.107 222.853 399.559 221.391C400.011 219.93 400.798 218.594 401.856 217.491C415.59 201.538 434.924 216.509 448.504 224.324L457.674 229.488Z" fill="#FFB469"/>
<path d="M462.434 230.105C462.84 232.023 462.934 233.994 462.714 235.942C461.811 238.069 460.47 239.981 458.78 241.554C457.184 242.845 458.136 233.837 458.136 233.837" fill="#FFB469"/>
<path d="M457.674 225.657L458.164 225.938C459.507 226.599 460.713 227.508 461.72 228.618C464.128 231.648 461.804 235.1 459.41 237.219C452.956 242.971 443.17 247.672 434.42 245.553C426.845 243.509 419.622 240.325 413 236.11C407.526 232.813 400.68 228.828 399.252 222.079C399.002 220.57 399.107 219.022 399.559 217.561C400.011 216.099 400.798 214.764 401.856 213.661C415.59 197.708 434.924 212.679 448.504 220.494L457.674 225.657Z" fill="#FCBD4C"/>
<path d="M108.388 206.631C107.87 206.631 103.25 204.779 107.142 201.791C109.724 199.779 112.426 197.928 115.234 196.248" fill="#9A433A"/>
<path d="M108.388 182.035C108.388 182.035 112.28 196.473 108.388 204.176L161.294 235.353L213.626 265.701V243.252" fill="#FFE8BC"/>
<path d="M106.638 179.818C106.759 180.819 106.885 181.82 107.016 182.821L213.626 243.294V265.743L107.1 203.432C107.1 204.316 107.1 205.2 107.1 206.098L217.77 270.289V239.716L106.638 179.818Z" fill="#9A433A"/>
<path d="M107.226 180.211L217.182 243.35L371.462 152.57L263.872 90.6799C262.244 89.744 260.398 89.2574 258.522 89.2698C256.645 89.2821 254.805 89.7929 253.19 90.7501L107.212 177.447C106.972 177.589 106.773 177.792 106.635 178.035C106.497 178.278 106.425 178.553 106.426 178.833C106.428 179.113 106.502 179.387 106.643 179.629C106.783 179.871 106.984 180.071 107.226 180.211Z" fill="#F26250"/>
<path d="M217.742 270.289C217.742 270.289 371.924 179.229 371.462 178.85C371 178.471 371.462 152.514 371.462 152.514L217.182 243.294L217.742 270.289Z" fill="#9A433A"/>
<path d="M107.212 177.447C106.76 177.773 106.383 178.192 106.105 178.676C105.828 179.16 105.656 179.698 105.602 180.253C105.42 182.133 107.422 183.059 108.122 183.438" fill="#F26250"/>
<path d="M198.982 245.876L197.862 266.234L203.308 261.731L207.466 272.127L209.146 251.221L198.982 245.876Z" fill="#2AE400"/>
<path d="M299.866 338.03C298.924 338.027 297.985 337.919 297.066 337.708C293.769 336.97 290.763 335.276 288.422 332.835C286.081 330.394 284.51 327.316 283.906 323.985C283.668 321.769 283.724 315.441 283.808 310.516C283.82 309.779 284.019 309.057 284.386 308.419C284.753 307.781 285.277 307.247 285.908 306.867C286.538 306.488 287.255 306.276 287.99 306.252C288.725 306.227 289.454 306.391 290.108 306.727V306.727L312.004 319.033L311.654 320.436C311.654 320.436 311.36 321.698 310.632 326.048C310.17 328.854 308.854 333.765 305.032 336.333C303.518 337.403 301.718 337.994 299.866 338.03V338.03ZM288.19 310.109C288.101 310.108 288.014 310.133 287.938 310.179C287.866 310.219 287.805 310.278 287.763 310.35C287.722 310.421 287.7 310.503 287.7 310.586C287.574 317.377 287.602 321.993 287.77 323.565C288.286 326.091 289.52 328.414 291.323 330.254C293.127 332.094 295.423 333.371 297.934 333.933C298.78 334.182 299.669 334.248 300.543 334.127C301.417 334.006 302.255 333.701 303.002 333.232C305.69 331.408 306.656 327.227 306.936 325.501C307.286 323.354 307.552 321.923 307.72 321.011L288.4 310.165C288.335 310.13 288.263 310.111 288.19 310.109V310.109Z" fill="#E27623"/>
<path d="M331.086 355.106C330.144 355.103 329.205 354.994 328.286 354.783C324.989 354.046 321.983 352.351 319.642 349.911C317.301 347.47 315.73 344.392 315.126 341.061C314.93 339.251 314.902 335.098 315.014 328.433C315.025 327.576 315.248 326.735 315.664 325.986C316.079 325.236 316.674 324.602 317.394 324.14C317.934 323.803 318.553 323.614 319.188 323.589C319.824 323.564 320.455 323.706 321.02 324V324L343.252 336.178L342.902 337.582C342.902 337.582 342.608 338.844 341.88 343.194C341.418 346 340.102 350.911 336.28 353.478C334.75 354.529 332.941 355.096 331.086 355.106V355.106ZM319.382 327.409C319.234 327.539 319.116 327.699 319.034 327.878C318.952 328.056 318.908 328.251 318.906 328.447C318.766 336.515 318.906 339.546 318.99 340.654C319.506 343.181 320.74 345.504 322.543 347.344C324.347 349.183 326.643 350.461 329.154 351.023C330 351.271 330.889 351.337 331.763 351.216C332.637 351.095 333.475 350.791 334.222 350.322C336.91 348.498 337.876 344.316 338.156 342.591C338.506 340.458 338.772 339.041 338.94 338.115L319.382 327.409Z" fill="#E27623"/>
<path d="M342.09 338.788L340.2 335.449L368.2 319.145C370.497 317.832 373.214 317.47 375.774 318.135C376.777 318.496 377.688 319.072 378.445 319.824C379.202 320.575 379.786 321.483 380.156 322.484L376.614 323.986C376.45 323.489 376.18 323.034 375.822 322.654C375.464 322.273 375.027 321.976 374.542 321.783C373.036 321.478 371.47 321.727 370.132 322.484L342.09 338.788Z" fill="#E27623"/>
<path d="M288.736 309.899L286.804 306.559L314.804 290.255C317.101 288.943 319.818 288.58 322.378 289.245C323.381 289.606 324.292 290.182 325.049 290.934C325.806 291.685 326.39 292.593 326.76 293.595L323.218 295.096C323.055 294.601 322.786 294.148 322.431 293.767C322.076 293.387 321.642 293.089 321.16 292.893C319.645 292.58 318.068 292.83 316.722 293.595L288.736 309.899Z" fill="#E27623"/>
<path d="M310.835 318.388L308.995 321.777L319.276 327.383L321.116 323.994L310.835 318.388Z" fill="#E27623"/>
<path d="M293.272 234.511L298.536 231.943C298.536 231.943 298.956 227.313 297.136 226.331C295.316 225.348 293.272 234.511 293.272 234.511Z" fill="#196132"/>
<path d="M306.082 221.322C306.082 221.322 306.81 232.701 307.594 233.865C308.378 235.03 318.472 240.333 319.298 242.284C320.124 244.234 308.098 242.115 304.066 241.119C300.034 240.123 296.394 238.131 296.254 236.643C296.114 235.156 297.654 227.509 296.254 227.678C294.854 227.846 293.272 234.455 293.272 234.455L289.8 232.434L297.528 205.775" fill="#196132"/>
<path d="M317.198 223.174L322.462 220.606C322.462 220.606 322.882 215.976 321.062 214.994C319.242 214.012 317.198 223.174 317.198 223.174Z" fill="#196132"/>
<path d="M330.008 209.999C330.008 209.999 330.736 221.378 331.52 222.542C332.304 223.707 342.398 229.011 343.224 230.961C344.05 232.911 332.024 230.792 327.992 229.796C323.96 228.8 320.32 226.808 320.18 225.32C320.04 223.833 321.58 216.186 320.18 216.355C318.78 216.523 317.198 223.132 317.198 223.132L313.712 221.055L321.44 194.396" fill="#196132"/>
<path d="M290.864 124.635C289.016 126.417 284.69 151.195 287.574 163.094C290.458 174.992 319.298 179.931 319.298 179.931L312.522 210.251C312.522 210.251 323.568 218.67 334.124 215.19C337.932 213.955 346.612 170.418 343.252 164.356C339.892 158.295 301.252 137.305 301.252 137.305" fill="#FFF0D7"/>
<path d="M268.1 133.671C266.252 135.453 260.932 149.385 268.1 166.489C272.832 177.714 298.564 185.739 298.564 185.739L289.8 219.315C289.8 219.315 301.322 228.884 311.402 224.254C321.482 219.624 324.31 178.373 320.95 172.34C317.59 166.307 284.116 144.924 284.116 144.924" fill="#FFF0D7"/>
<path d="M277.2 100.347C277.2 100.347 258.118 108.289 263.452 135.425C267.204 154.507 286.076 156.611 286.076 156.611C286.076 156.611 298.438 148.81 297.052 146.2L280.252 137.431L299.278 127.792L313.012 142.23L322.812 134.569C322.812 134.569 308.644 112.288 302.484 103.083C296.324 93.8791 277.2 100.347 277.2 100.347Z" fill="#FF9A22"/>
<path d="M301.938 146.411L298.578 143.703C298.578 143.703 306.068 136.842 316.288 137.74C318.983 133.581 323.028 130.483 327.74 128.97L331.94 132.015" fill="#FFE8BC"/>
<path d="M298.578 143.703L295.918 163.192L301.924 166.489L306.656 148.684" fill="#FFE8BC"/>
<path d="M301.938 146.411L299.138 164.861L301.938 166.489C301.938 166.489 330.512 150.746 330.232 150.466C329.952 150.185 331.954 132.029 331.954 132.029" fill="#68E1FD"/>
<path d="M329.882 130.528L301.924 146.411L304.556 147.898L331.954 132.015L329.882 130.528Z" fill="#68E1FD"/>
<path opacity="0.42" d="M329.882 130.528L301.924 146.411L304.556 147.898L331.954 132.015L329.882 130.528Z" fill="#1371A5"/>
<path d="M305.522 148.978C305.589 148.72 305.588 148.449 305.518 148.191C305.448 147.934 305.313 147.699 305.125 147.511C304.936 147.322 304.702 147.186 304.445 147.116C304.188 147.046 303.918 147.045 303.66 147.112C301.483 147.917 299.176 148.307 296.856 148.263C296.607 148.254 296.361 148.312 296.142 148.431C293.962 150.626 291.544 152.57 288.932 154.226L289.716 154.591C290.753 156.628 291.942 158.583 293.272 160.442C293.574 160.871 293.975 161.223 294.44 161.467C294.905 161.711 295.421 161.84 295.946 161.845C296.291 162.106 296.656 162.341 297.038 162.546C297.585 162.851 298.211 162.984 298.835 162.929C299.459 162.874 300.052 162.633 300.538 162.238C300.9 162.466 301.336 162.547 301.756 162.462C302.029 162.603 302.336 162.662 302.642 162.632C302.947 162.602 303.237 162.485 303.478 162.294C304.165 161.889 304.667 161.231 304.879 160.461C305.091 159.691 304.995 158.869 304.612 158.169C305.099 157.609 305.377 156.897 305.397 156.154C305.417 155.412 305.18 154.685 304.724 154.1C304.093 153.192 303.312 152.4 302.414 151.756C303.139 151.63 303.814 151.302 304.363 150.812C304.912 150.321 305.314 149.686 305.522 148.978V148.978Z" fill="#FDBA45"/>
<path d="M333.004 142.51C333.172 142.258 333.326 141.991 333.48 141.738C333.596 141.562 333.671 141.361 333.7 141.151C333.728 140.941 333.708 140.728 333.642 140.527C333.576 140.326 333.465 140.142 333.318 139.99C333.172 139.838 332.992 139.721 332.794 139.648L332.584 139.451C332.732 139.111 332.751 138.728 332.637 138.374C332.524 138.02 332.286 137.72 331.968 137.529C331.751 137.419 331.511 137.362 331.268 137.362C331.025 137.362 330.785 137.419 330.568 137.529C330.435 137.562 330.308 137.614 330.19 137.683C329.116 138.365 328.295 139.38 327.852 140.574C327.764 140.897 327.785 141.24 327.911 141.549C328.038 141.859 328.263 142.118 328.552 142.286C328.718 142.372 328.898 142.429 329.084 142.454V142.454C328.55 143.152 328.116 143.922 327.796 144.741C327.404 145.807 328.496 146.747 329.462 146.649L329.238 146.958C328.398 148.052 329.784 149.526 330.946 149.189C331.359 149.051 331.739 148.829 332.061 148.537C332.384 148.245 332.643 147.889 332.822 147.491C333.312 146.593 333.788 145.695 334.222 144.783C334.333 144.557 334.389 144.307 334.384 144.055C334.38 143.802 334.316 143.555 334.196 143.333C334.077 143.11 333.907 142.92 333.7 142.777C333.492 142.634 333.254 142.542 333.004 142.51V142.51Z" fill="#FDBA45"/>
<path d="M299.95 120.861C299.95 120.861 300.412 138.062 299.39 139.943C298.368 141.823 280.238 149.54 280.238 149.54L269.038 135.369L299.95 120.861Z" fill="#FF9A22"/>
<path d="M290.724 91.4238C290.724 91.4238 293.916 98.4393 292.684 100.909C291.452 103.378 284.732 101.694 284.732 101.694" fill="#1B6333"/>
<path d="M291.298 87.86C291.298 87.86 291.494 102.031 285.698 103.561C279.902 105.09 276.822 97.9482 276.822 97.9482C276.822 97.9482 275.646 88.3791 277.522 86.3727C279.398 84.3663 288.232 83.8191 291.298 87.86Z" fill="#FDBA45"/>
<path d="M293.538 86.2884C293.538 86.2884 289.632 91.9008 287.322 93.3039C285.012 94.7069 282.394 93.9072 281.582 95.8294C280.77 97.7516 283.668 109.145 281.008 111.263C278.348 113.382 273.168 107.237 270.886 110.253C268.604 113.27 269.836 118.826 266.252 120.075C262.668 121.324 258.44 115.739 261.856 111.305C265.272 106.872 265.608 104.697 263.648 103.238C260.722 101.063 263.746 93.0513 267.162 91.536C270.578 90.0206 271.502 82.2475 277.648 80.3113C283.794 78.375 292.208 81.8967 293.538 86.2884Z" fill="#1B6333"/>
<path d="M298.578 115.402C298.578 123.335 298.424 131.285 298.116 139.255C298.116 140.153 299.516 140.153 299.516 139.255C299.843 131.323 299.997 123.372 299.978 115.402C299.978 115.216 299.904 115.038 299.773 114.906C299.642 114.775 299.464 114.701 299.278 114.701C299.092 114.701 298.914 114.775 298.783 114.906C298.652 115.038 298.578 115.216 298.578 115.402Z" fill="#F26250"/>
<path d="M296.8 145.653C292.293 143.595 288.326 140.512 285.216 136.649C282.105 132.786 279.936 128.25 278.88 123.4C278.684 122.516 277.34 122.895 277.48 123.779C278.583 128.81 280.839 133.515 284.068 137.523C287.297 141.531 291.411 144.732 296.086 146.874C296.954 147.239 297.668 146.032 296.8 145.653Z" fill="#F26250"/>
<defs>
<linearGradient id="paint0_linear" x1="273.994" y1="369.656" x2="328.898" y2="320.205" gradientUnits="userSpaceOnUse">
<stop stop-color="#DAF2E9"/>
<stop offset="1" stop-color="#C4E0D1"/>
</linearGradient>
<linearGradient id="paint1_linear" x1="32094.5" y1="17098.2" x2="33106.3" y2="14993.1" gradientUnits="userSpaceOnUse">
<stop stop-color="#DAF2E9"/>
<stop offset="1" stop-color="#C4E0D1"/>
</linearGradient>
<linearGradient id="paint2_linear" x1="19742.9" y1="26641.1" x2="21309.8" y2="22974.3" gradientUnits="userSpaceOnUse">
<stop stop-color="#DAF2E9"/>
<stop offset="1" stop-color="#C4E0D1"/>
</linearGradient>
</defs>
</svg>
