<svg width="169" height="55" viewBox="0 0 169 55" fill="none" xmlns="http://www.w3.org/2000/svg">
<path d="M61.248 27L57.816 22.08C57.672 22.096 57.456 22.104 57.168 22.104H53.376V27H50.256V10.2H57.168C58.624 10.2 59.888 10.44 60.96 10.92C62.048 11.4 62.88 12.088 63.456 12.984C64.032 13.88 64.32 14.944 64.32 16.176C64.32 17.44 64.008 18.528 63.384 19.44C62.776 20.352 61.896 21.032 60.744 21.48L64.608 27H61.248ZM61.176 16.176C61.176 15.104 60.824 14.28 60.12 13.704C59.416 13.128 58.384 12.84 57.024 12.84H53.376V19.536H57.024C58.384 19.536 59.416 19.248 60.12 18.672C60.824 18.08 61.176 17.248 61.176 16.176ZM75.6587 27.24C73.9467 27.24 72.4027 26.872 71.0267 26.136C69.6507 25.384 68.5707 24.352 67.7867 23.04C67.0027 21.712 66.6107 20.232 66.6107 18.6C66.6107 16.968 67.0027 15.496 67.7867 14.184C68.5707 12.856 69.6507 11.824 71.0267 11.088C72.4027 10.336 73.9467 9.96 75.6587 9.96C77.3707 9.96 78.9147 10.336 80.2907 11.088C81.6667 11.824 82.7467 12.848 83.5307 14.16C84.3147 15.472 84.7067 16.952 84.7067 18.6C84.7067 20.248 84.3147 21.728 83.5307 23.04C82.7467 24.352 81.6667 25.384 80.2907 26.136C78.9147 26.872 77.3707 27.24 75.6587 27.24ZM75.6587 24.504C76.7787 24.504 77.7867 24.256 78.6827 23.76C79.5787 23.248 80.2827 22.544 80.7947 21.648C81.3067 20.736 81.5627 19.72 81.5627 18.6C81.5627 17.48 81.3067 16.472 80.7947 15.576C80.2827 14.664 79.5787 13.96 78.6827 13.464C77.7867 12.952 76.7787 12.696 75.6587 12.696C74.5387 12.696 73.5307 12.952 72.6347 13.464C71.7387 13.96 71.0347 14.664 70.5227 15.576C70.0107 16.472 69.7547 17.48 69.7547 18.6C69.7547 19.72 70.0107 20.736 70.5227 21.648C71.0347 22.544 71.7387 23.248 72.6347 23.76C73.5307 24.256 74.5387 24.504 75.6587 24.504ZM99.4858 18.408H102.438V25.104C101.574 25.792 100.566 26.32 99.4138 26.688C98.2618 27.056 97.0778 27.24 95.8618 27.24C94.1498 27.24 92.6058 26.872 91.2298 26.136C89.8538 25.384 88.7738 24.352 87.9898 23.04C87.2058 21.728 86.8138 20.248 86.8138 18.6C86.8138 16.952 87.2058 15.472 87.9898 14.16C88.7738 12.848 89.8538 11.824 91.2298 11.088C92.6218 10.336 94.1818 9.96 95.9098 9.96C97.3178 9.96 98.5978 10.192 99.7498 10.656C100.902 11.12 101.87 11.8 102.654 12.696L100.686 14.616C99.4058 13.336 97.8618 12.696 96.0538 12.696C94.8698 12.696 93.8138 12.944 92.8858 13.44C91.9738 13.936 91.2538 14.632 90.7258 15.528C90.2138 16.424 89.9578 17.448 89.9578 18.6C89.9578 19.72 90.2138 20.728 90.7258 21.624C91.2538 22.52 91.9738 23.224 92.8858 23.736C93.8138 24.248 94.8618 24.504 96.0298 24.504C97.3418 24.504 98.4938 24.216 99.4858 23.64V18.408ZM117.545 27L114.113 22.08C113.969 22.096 113.753 22.104 113.465 22.104H109.673V27H106.553V10.2H113.465C114.921 10.2 116.185 10.44 117.257 10.92C118.345 11.4 119.177 12.088 119.753 12.984C120.329 13.88 120.617 14.944 120.617 16.176C120.617 17.44 120.305 18.528 119.681 19.44C119.073 20.352 118.193 21.032 117.041 21.48L120.905 27H117.545ZM117.473 16.176C117.473 15.104 117.121 14.28 116.417 13.704C115.713 13.128 114.681 12.84 113.321 12.84H109.673V19.536H113.321C114.681 19.536 115.713 19.248 116.417 18.672C117.121 18.08 117.473 17.248 117.473 16.176ZM136.708 24.384V27H124.108V10.2H136.372V12.816H127.228V17.184H135.34V19.752H127.228V24.384H136.708ZM145.394 27.24C144.098 27.24 142.842 27.056 141.626 26.688C140.426 26.32 139.474 25.832 138.77 25.224L139.85 22.8C140.538 23.344 141.378 23.792 142.37 24.144C143.378 24.48 144.386 24.648 145.394 24.648C146.642 24.648 147.57 24.448 148.178 24.048C148.802 23.648 149.114 23.12 149.114 22.464C149.114 21.984 148.938 21.592 148.586 21.288C148.25 20.968 147.818 20.72 147.29 20.544C146.762 20.368 146.042 20.168 145.13 19.944C143.85 19.64 142.81 19.336 142.01 19.032C141.226 18.728 140.546 18.256 139.97 17.616C139.41 16.96 139.13 16.08 139.13 14.976C139.13 14.048 139.378 13.208 139.874 12.456C140.386 11.688 141.146 11.08 142.154 10.632C143.178 10.184 144.426 9.96 145.898 9.96C146.922 9.96 147.93 10.088 148.922 10.344C149.914 10.6 150.77 10.968 151.49 11.448L150.506 13.872C149.77 13.44 149.002 13.112 148.202 12.888C147.402 12.664 146.626 12.552 145.874 12.552C144.642 12.552 143.722 12.76 143.114 13.176C142.522 13.592 142.226 14.144 142.226 14.832C142.226 15.312 142.394 15.704 142.73 16.008C143.082 16.312 143.522 16.552 144.05 16.728C144.578 16.904 145.298 17.104 146.21 17.328C147.458 17.616 148.482 17.92 149.282 18.24C150.082 18.544 150.762 19.016 151.322 19.656C151.898 20.296 152.186 21.16 152.186 22.248C152.186 23.176 151.93 24.016 151.418 24.768C150.922 25.52 150.162 26.12 149.138 26.568C148.114 27.016 146.866 27.24 145.394 27.24ZM160.487 27.24C159.191 27.24 157.935 27.056 156.719 26.688C155.519 26.32 154.567 25.832 153.863 25.224L154.943 22.8C155.631 23.344 156.471 23.792 157.463 24.144C158.471 24.48 159.479 24.648 160.487 24.648C161.735 24.648 162.663 24.448 163.271 24.048C163.895 23.648 164.207 23.12 164.207 22.464C164.207 21.984 164.031 21.592 163.679 21.288C163.343 20.968 162.911 20.72 162.383 20.544C161.855 20.368 161.135 20.168 160.223 19.944C158.943 19.64 157.903 19.336 157.103 19.032C156.319 18.728 155.639 18.256 155.063 17.616C154.503 16.96 154.223 16.08 154.223 14.976C154.223 14.048 154.471 13.208 154.967 12.456C155.479 11.688 156.239 11.08 157.247 10.632C158.271 10.184 159.519 9.96 160.991 9.96C162.015 9.96 163.023 10.088 164.015 10.344C165.007 10.6 165.863 10.968 166.583 11.448L165.599 13.872C164.863 13.44 164.095 13.112 163.295 12.888C162.495 12.664 161.719 12.552 160.967 12.552C159.735 12.552 158.815 12.76 158.207 13.176C157.615 13.592 157.319 14.144 157.319 14.832C157.319 15.312 157.487 15.704 157.823 16.008C158.175 16.312 158.615 16.552 159.143 16.728C159.671 16.904 160.391 17.104 161.303 17.328C162.551 17.616 163.575 17.92 164.375 18.24C165.175 18.544 165.855 19.016 166.415 19.656C166.991 20.296 167.279 21.16 167.279 22.248C167.279 23.176 167.023 24.016 166.511 24.768C166.015 25.52 165.255 26.12 164.231 26.568C163.207 27.016 161.959 27.24 160.487 27.24Z" fill="#FF0000"/>
<path d="M59.26 45.284C59.26 45.416 59.248 45.59 59.224 45.806H51.484C51.592 46.646 51.958 47.324 52.582 47.84C53.218 48.344 54.004 48.596 54.94 48.596C56.08 48.596 56.998 48.212 57.694 47.444L58.648 48.56C58.216 49.064 57.676 49.448 57.028 49.712C56.392 49.976 55.678 50.108 54.886 50.108C53.878 50.108 52.984 49.904 52.204 49.496C51.424 49.076 50.818 48.494 50.386 47.75C49.966 47.006 49.756 46.166 49.756 45.23C49.756 44.306 49.96 43.472 50.368 42.728C50.788 41.984 51.358 41.408 52.078 41C52.81 40.58 53.632 40.37 54.544 40.37C55.456 40.37 56.266 40.58 56.974 41C57.694 41.408 58.252 41.984 58.648 42.728C59.056 43.472 59.26 44.324 59.26 45.284ZM54.544 41.828C53.716 41.828 53.02 42.08 52.456 42.584C51.904 43.088 51.58 43.748 51.484 44.564H57.604C57.508 43.76 57.178 43.106 56.614 42.602C56.062 42.086 55.372 41.828 54.544 41.828ZM70.6595 36.644V50H69.0035V48.488C68.6195 49.016 68.1335 49.418 67.5455 49.694C66.9575 49.97 66.3095 50.108 65.6015 50.108C64.6775 50.108 63.8495 49.904 63.1175 49.496C62.3855 49.088 61.8095 48.518 61.3895 47.786C60.9815 47.042 60.7775 46.19 60.7775 45.23C60.7775 44.27 60.9815 43.424 61.3895 42.692C61.8095 41.96 62.3855 41.39 63.1175 40.982C63.8495 40.574 64.6775 40.37 65.6015 40.37C66.2855 40.37 66.9155 40.502 67.4915 40.766C68.0675 41.018 68.5475 41.396 68.9315 41.9V36.644H70.6595ZM65.7455 48.596C66.3455 48.596 66.8915 48.458 67.3835 48.182C67.8755 47.894 68.2595 47.498 68.5355 46.994C68.8115 46.478 68.9495 45.89 68.9495 45.23C68.9495 44.57 68.8115 43.988 68.5355 43.484C68.2595 42.968 67.8755 42.572 67.3835 42.296C66.8915 42.02 66.3455 41.882 65.7455 41.882C65.1335 41.882 64.5815 42.02 64.0895 42.296C63.6095 42.572 63.2255 42.968 62.9375 43.484C62.6615 43.988 62.5235 44.57 62.5235 45.23C62.5235 45.89 62.6615 46.478 62.9375 46.994C63.2255 47.498 63.6095 47.894 64.0895 48.182C64.5815 48.458 65.1335 48.596 65.7455 48.596ZM82.821 40.46V50H81.183V48.56C80.835 49.052 80.373 49.436 79.797 49.712C79.233 49.976 78.615 50.108 77.943 50.108C76.671 50.108 75.669 49.76 74.937 49.064C74.205 48.356 73.839 47.318 73.839 45.95V40.46H75.567V45.752C75.567 46.676 75.789 47.378 76.233 47.858C76.677 48.326 77.313 48.56 78.141 48.56C79.053 48.56 79.773 48.284 80.301 47.732C80.829 47.18 81.093 46.4 81.093 45.392V40.46H82.821ZM90.2687 50.108C89.2967 50.108 88.4267 49.898 87.6587 49.478C86.9027 49.058 86.3087 48.482 85.8767 47.75C85.4447 47.006 85.2287 46.166 85.2287 45.23C85.2287 44.294 85.4447 43.46 85.8767 42.728C86.3087 41.984 86.9027 41.408 87.6587 41C88.4267 40.58 89.2967 40.37 90.2687 40.37C91.1327 40.37 91.9007 40.544 92.5727 40.892C93.2567 41.24 93.7847 41.744 94.1567 42.404L92.8427 43.25C92.5427 42.794 92.1707 42.452 91.7267 42.224C91.2827 41.996 90.7907 41.882 90.2507 41.882C89.6267 41.882 89.0627 42.02 88.5587 42.296C88.0667 42.572 87.6767 42.968 87.3887 43.484C87.1127 43.988 86.9747 44.57 86.9747 45.23C86.9747 45.902 87.1127 46.496 87.3887 47.012C87.6767 47.516 88.0667 47.906 88.5587 48.182C89.0627 48.458 89.6267 48.596 90.2507 48.596C90.7907 48.596 91.2827 48.482 91.7267 48.254C92.1707 48.026 92.5427 47.684 92.8427 47.228L94.1567 48.056C93.7847 48.716 93.2567 49.226 92.5727 49.586C91.9007 49.934 91.1327 50.108 90.2687 50.108ZM99.8679 40.37C101.188 40.37 102.196 40.694 102.892 41.342C103.6 41.99 103.954 42.956 103.954 44.24V50H102.316V48.74C102.028 49.184 101.614 49.526 101.074 49.766C100.546 49.994 99.9159 50.108 99.1839 50.108C98.1159 50.108 97.2579 49.85 96.6099 49.334C95.9739 48.818 95.6559 48.14 95.6559 47.3C95.6559 46.46 95.9619 45.788 96.5739 45.284C97.1859 44.768 98.1579 44.51 99.4899 44.51H102.226V44.168C102.226 43.424 102.01 42.854 101.578 42.458C101.146 42.062 100.51 41.864 99.6699 41.864C99.1059 41.864 98.5539 41.96 98.0139 42.152C97.4739 42.332 97.0179 42.578 96.6459 42.89L95.9259 41.594C96.4179 41.198 97.0059 40.898 97.6899 40.694C98.3739 40.478 99.0999 40.37 99.8679 40.37ZM99.4719 48.776C100.132 48.776 100.702 48.632 101.182 48.344C101.662 48.044 102.01 47.624 102.226 47.084V45.752H99.5619C98.0979 45.752 97.3659 46.244 97.3659 47.228C97.3659 47.708 97.5519 48.086 97.9239 48.362C98.2959 48.638 98.8119 48.776 99.4719 48.776ZM112.516 49.442C112.264 49.658 111.952 49.826 111.58 49.946C111.208 50.054 110.824 50.108 110.428 50.108C109.468 50.108 108.724 49.85 108.196 49.334C107.668 48.818 107.404 48.08 107.404 47.12V41.882H105.784V40.46H107.404V38.372H109.132V40.46H111.868V41.882H109.132V47.048C109.132 47.564 109.258 47.96 109.51 48.236C109.774 48.512 110.146 48.65 110.626 48.65C111.154 48.65 111.604 48.5 111.976 48.2L112.516 49.442ZM114.605 40.46H116.333V50H114.605V40.46ZM115.469 38.624C115.133 38.624 114.851 38.516 114.623 38.3C114.407 38.084 114.299 37.82 114.299 37.508C114.299 37.196 114.407 36.932 114.623 36.716C114.851 36.488 115.133 36.374 115.469 36.374C115.805 36.374 116.081 36.482 116.297 36.698C116.525 36.902 116.639 37.16 116.639 37.472C116.639 37.796 116.525 38.072 116.297 38.3C116.081 38.516 115.805 38.624 115.469 38.624ZM123.718 50.108C122.77 50.108 121.918 49.898 121.162 49.478C120.406 49.058 119.812 48.482 119.38 47.75C118.96 47.006 118.75 46.166 118.75 45.23C118.75 44.294 118.96 43.46 119.38 42.728C119.812 41.984 120.406 41.408 121.162 41C121.918 40.58 122.77 40.37 123.718 40.37C124.666 40.37 125.512 40.58 126.256 41C127.012 41.408 127.6 41.984 128.02 42.728C128.452 43.46 128.668 44.294 128.668 45.23C128.668 46.166 128.452 47.006 128.02 47.75C127.6 48.482 127.012 49.058 126.256 49.478C125.512 49.898 124.666 50.108 123.718 50.108ZM123.718 48.596C124.33 48.596 124.876 48.458 125.356 48.182C125.848 47.894 126.232 47.498 126.508 46.994C126.784 46.478 126.922 45.89 126.922 45.23C126.922 44.57 126.784 43.988 126.508 43.484C126.232 42.968 125.848 42.572 125.356 42.296C124.876 42.02 124.33 41.882 123.718 41.882C123.106 41.882 122.554 42.02 122.062 42.296C121.582 42.572 121.198 42.968 120.91 43.484C120.634 43.988 120.496 44.57 120.496 45.23C120.496 45.89 120.634 46.478 120.91 46.994C121.198 47.498 121.582 47.894 122.062 48.182C122.554 48.458 123.106 48.596 123.718 48.596ZM136.152 40.37C137.364 40.37 138.324 40.724 139.032 41.432C139.752 42.128 140.112 43.154 140.112 44.51V50H138.384V44.708C138.384 43.784 138.162 43.088 137.718 42.62C137.274 42.152 136.638 41.918 135.81 41.918C134.874 41.918 134.136 42.194 133.596 42.746C133.056 43.286 132.786 44.066 132.786 45.086V50H131.058V40.46H132.714V41.9C133.062 41.408 133.53 41.03 134.118 40.766C134.718 40.502 135.396 40.37 136.152 40.37Z" fill="#FF9900"/>
<path d="M28.9167 19H23.1667C14.1314 19 9.61379 19 6.80689 21.8069C4 24.6138 4 29.1314 4 38.1667L4 49.6667" stroke="#FF1515" stroke-width="7.1875" stroke-linecap="round"/>
<path d="M3.61435 4H27.9583C36.4267 4 43.2917 10.865 43.2917 19.3333V19.3333C43.2917 27.8017 36.4267 34.6667 27.9583 34.6667H19.5729" stroke="#FF1515" stroke-width="7.1875" stroke-linecap="round"/>
</svg>
