<svg width="563" height="425" viewBox="0 0 563 425" fill="none" xmlns="http://www.w3.org/2000/svg">
<g clip-path="url(#clip0)">
<g opacity="0.18">
<path d="M25.2782 306.564C28.101 323.936 45.3544 404.716 108.379 421.903C156.024 434.909 289.883 390.377 366.125 412.801C519.585 457.914 547.694 336.797 539.12 304.084C533.145 281.277 525.771 258.405 525.573 234.596C525.375 209.692 534.108 185.197 535.057 160.108C537.471 96.6215 492.847 34.2957 431.999 16.0794C405.947 8.29691 384.644 0.342947 357.458 0.118706C302.282 -0.356158 171.338 0.118715 106.836 93.9438C95.3074 110.709 78.5685 123.253 65.7076 139.029C48.5597 160.135 37.1366 185.632 30.2379 212C22.0528 242.838 20.3639 275.039 25.2782 306.564Z" fill="#00CFFF"/>
<path d="M25.2782 306.564C28.101 323.936 45.3544 404.716 108.379 421.903C156.024 434.909 289.883 390.377 366.125 412.801C519.585 457.914 547.694 336.797 539.12 304.084C533.145 281.277 525.771 258.405 525.573 234.596C525.375 209.692 534.108 185.197 535.057 160.108C537.471 96.6215 492.847 34.2957 431.999 16.0794C405.947 8.29691 384.644 0.342947 357.458 0.118706C302.282 -0.356158 171.338 0.118715 106.836 93.9438C95.3074 110.709 78.5685 123.253 65.7076 139.029C48.5597 160.135 37.1366 185.632 30.2379 212C22.0528 242.838 20.3639 275.039 25.2782 306.564Z" fill="#00CFFF"/>
</g>
<path d="M350.863 327.247H250.363L268.144 277.096H335.865L350.863 327.247Z" fill="#16D3FF"/>
<path d="M350.863 327.247H250.363L268.144 277.096H335.865L350.863 327.247Z" fill="url(#paint0_linear)"/>
<path d="M435.059 95.0254H174.636C164.67 95.0254 156.591 103.104 156.591 113.07V277.861C156.591 287.827 164.67 295.906 174.636 295.906H435.059C445.025 295.906 453.104 287.827 453.104 277.861V113.07C453.104 103.104 445.025 95.0254 435.059 95.0254Z" fill="#16D3FF"/>
<path d="M453.104 113.057V257.6H156.657V113.057C156.657 108.275 158.557 103.688 161.938 100.307C165.32 96.9252 169.906 95.0254 174.689 95.0254H435.072C439.854 95.0254 444.441 96.9252 447.822 100.307C451.204 103.688 453.104 108.275 453.104 113.057Z" fill="#473F47"/>
<path d="M448.645 116.5V252.772H161.089V116.5C161.117 111.884 162.977 107.469 166.259 104.223C169.541 100.978 173.978 99.1691 178.593 99.1937H431.141C435.757 99.1691 440.194 100.978 443.476 104.223C446.758 107.469 448.617 111.884 448.645 116.5Z" fill="white"/>
<path opacity="0.18" d="M448.645 116.5V252.772H161.089V116.5C161.117 111.884 162.977 107.469 166.259 104.223C169.541 100.978 173.978 99.1691 178.593 99.1937H431.141C435.757 99.1691 440.194 100.978 443.476 104.223C446.758 107.469 448.617 111.884 448.645 116.5Z" fill="#16D3FF"/>
<path d="M294.315 62.9722H178.435V144.833H294.315V62.9722Z" fill="#16D3FF"/>
<path d="M402.953 109.627C402.781 107.161 402.953 104.628 402.689 102.175C402.282 98.6366 401.131 95.2245 399.313 92.1624C397.494 89.1002 395.049 86.4573 392.136 84.407C386.24 80.3228 379.049 78.544 371.928 79.4077C360.387 80.7268 350.691 88.6412 345.138 98.6265C338.82 109.984 344.729 119.283 349.834 129.585C353.659 137.288 351.404 146.904 346.444 153.935C342.553 159.435 336.802 164.712 337.29 171.439C337.593 175.528 340.205 179.024 342.724 182.255C344.413 184.418 346.299 186.714 348.963 187.334C350.307 187.578 351.683 187.578 353.026 187.334C356.036 186.909 359.018 186.306 361.956 185.526C364.805 184.761 367.734 183.812 370.662 184.207C375.622 184.841 379.289 189.022 382.151 193.098C385.014 197.174 387.836 201.711 392.387 203.743C395.843 205.299 399.8 205.154 403.573 204.838C414.587 203.927 426.261 201.368 433.832 193.322C435.505 191.473 437.043 189.507 438.436 187.439C439.287 186.353 439.976 185.149 440.48 183.864C441.799 180.026 439.689 175.95 437.314 172.586C434.94 169.223 432.038 165.991 431.695 161.955C431.379 158.789 432.645 155.716 433.014 152.576C433.819 146.588 431.484 140.507 427.738 135.745C423.859 131.113 419.209 127.186 413.993 124.137C410.036 121.657 405.815 119.085 403.968 114.904C403.32 113.219 402.976 111.433 402.953 109.627Z" fill="#FC682D"/>
<path d="M396.476 121.539C397.347 124.177 397.795 127.013 399.312 129.387C401.159 132.395 404.298 134.32 407.411 135.982C409.091 136.731 410.613 137.792 411.896 139.109C412.79 140.253 413.417 141.582 413.73 143C414.182 144.864 414.293 146.794 414.059 148.698C413.684 150.283 413.582 151.92 413.756 153.539C414.218 155.557 415.867 157.035 417.304 158.525C420.168 161.225 422.103 164.762 422.831 168.629C423.359 172.507 421.789 176.821 418.36 178.72C417.116 179.359 415.781 179.804 414.402 180.039C412.187 180.476 409.943 180.75 407.688 180.857C406.081 180.978 404.465 180.844 402.9 180.461C400.991 179.779 399.208 178.785 397.624 177.52L376.624 162.588C374.183 161.087 372.07 159.108 370.412 156.771C369.262 154.654 368.498 152.349 368.156 149.965C367.008 144.174 366.125 137.974 368.367 132.513C370.108 128.24 373.564 124.929 376.915 121.75L385.422 113.703C387.889 111.369 389.828 110.34 392.018 113.202C393.95 115.719 395.456 118.535 396.476 121.539Z" fill="url(#paint1_linear)"/>
<path d="M411.105 197.952C418.083 205.774 420.985 215.403 426.274 224.333C426.897 225.61 427.849 226.698 429.031 227.486C430.97 228.541 433.384 227.803 435.336 226.774C451.046 218.384 452.484 194.391 467.891 185.461C471.465 183.403 475.528 182.321 479.076 180.184C480.395 179.393 481.82 177.981 481.292 176.53C481.051 176.085 480.716 175.696 480.311 175.391C479.906 175.086 479.44 174.872 478.944 174.763C474.888 173.362 470.583 172.827 466.308 173.193C464.395 173.365 461.731 173.193 461.52 171.254C461.572 170.697 461.572 170.136 461.52 169.579C461.097 168.181 458.763 168.695 458.182 170.041C457.602 171.386 458.037 172.916 457.984 174.38C457.721 176.672 456.836 178.848 455.425 180.672C452.1 185.799 448.462 190.715 444.53 195.393C433.397 208.584 430.587 187.545 421.789 183.152C420.952 182.805 420.057 182.622 419.151 182.611C411.316 182.075 403.472 181.917 395.619 182.137C398.402 184.366 408.599 195.156 411.105 197.952Z" fill="#F4DBBD"/>
<path d="M388.654 149.252C388.654 149.252 411.448 159.528 412.793 162.219C414.139 164.91 412.793 241.679 412.793 241.679H332.436L337.053 160.781L360.558 151.152L388.654 149.252Z" fill="#16D3FF"/>
<path d="M332.423 241.692H412.793C412.793 241.692 414.112 164.923 412.793 162.205C411.474 159.488 388.654 149.252 388.654 149.252L360.571 151.138L337.066 160.768L334.836 199.614L332.423 241.692Z" fill="url(#paint2_linear)"/>
<path d="M412.793 162.179L431.933 186.555C428.081 197.939 412.793 212.383 412.793 212.383V162.179Z" fill="#16D3FF"/>
<path d="M412.793 184.326L424.757 199.034L412.793 212.422V184.326Z" fill="url(#paint3_linear)"/>
<path d="M388.074 138.33C387.296 142.472 388.496 145.625 388.667 149.424C388.905 155.056 382.943 163.854 380.568 168.999C379.803 170.661 378.893 172.468 377.218 173.22C376.033 173.651 374.76 173.783 373.511 173.602C371.652 173.65 369.81 173.228 368.156 172.375C365.993 171.056 365.056 168.418 364.304 165.965C363.078 162.008 359.965 155.742 360.716 151.666C360.954 150.347 362.141 149.028 362.471 147.603C362.783 145.761 362.885 143.889 362.774 142.024C362.682 132.104 388.074 138.33 388.074 138.33Z" fill="#F4DBBD"/>
<path d="M388.074 138.33C388.074 138.33 384.855 155.584 374.606 154.581C371.81 154.412 369.143 153.343 367.003 151.534C364.864 149.725 363.367 147.273 362.735 144.543L388.074 138.33Z" fill="#E0BE99"/>
<path d="M388.971 135.349C388.348 138.107 387.27 140.742 385.779 143.145C381.584 149.279 372.06 151.165 365.755 147.102C362.36 144.662 359.733 141.303 358.184 137.42C354.496 129.289 353.263 120.257 354.636 111.435C354.999 107.99 356.314 104.715 358.434 101.977C362.167 97.6636 368.538 96.5424 374.263 96.8457C379.447 97.1227 384.816 98.4154 388.707 101.726C390.806 103.581 392.364 105.969 393.216 108.637C394.069 111.305 394.183 114.154 393.548 116.882C392.084 123.029 390.646 129.202 388.971 135.349Z" fill="#F4DBBD"/>
<path d="M268.778 159.013C267.925 158.189 266.869 157.606 265.717 157.325C264.553 157.177 263.382 157.089 262.209 157.061C259.795 156.784 257.262 155.505 255.086 156.586C254.353 157.012 253.749 157.628 253.338 158.368C252.927 159.109 252.724 159.947 252.751 160.794C252.817 162.487 253.302 164.136 254.162 165.595C257.803 172.52 263.158 174.829 269.45 178.535C272.761 180.488 275.07 185.131 277.365 188.362L285.688 199.891C289.091 204.6 292.547 209.375 297.098 213.003C297.838 213.645 298.686 214.15 299.604 214.493C301.275 214.894 303.032 214.717 304.59 213.992C311.186 211.446 317.055 206.618 322.754 202.45C325.392 200.498 328.122 198.493 330.774 196.527C331.921 195.67 334.058 194.575 334.797 193.283C335.204 192.459 335.441 191.562 335.496 190.644C336.498 182.862 335.113 174.934 335.311 167.086C326.632 177.005 316.607 187.492 304.973 193.889C304.627 194.122 304.227 194.262 303.812 194.298C303.39 194.263 302.983 194.128 302.625 193.903C292.98 188.763 284.487 181.707 277.668 173.167C275.15 169.655 272.943 165.93 271.073 162.034C270.477 160.909 269.702 159.889 268.778 159.013Z" fill="#F4DBBD"/>
<path d="M393.495 119.059C394.032 118.773 394.644 118.662 395.246 118.74C395.849 118.818 396.413 119.081 396.859 119.494C397.118 119.833 397.298 120.225 397.386 120.642C397.799 123.004 397.305 125.435 396.001 127.448C395.704 128.031 395.296 128.55 394.801 128.978C393.793 129.614 392.615 129.927 391.424 129.875C391.159 129.928 390.885 129.928 390.62 129.875C390.406 129.777 390.217 129.633 390.066 129.453C389.686 128.977 389.407 128.429 389.246 127.841C389.085 127.254 389.045 126.64 389.129 126.037C389.38 123.319 390.936 120.18 393.495 119.059Z" fill="#F4DBBD"/>
<path d="M353.765 129.361C354.299 129.652 354.911 129.768 355.515 129.692C356.118 129.616 356.683 129.353 357.129 128.939C357.388 128.6 357.568 128.208 357.656 127.791C358.076 125.429 357.581 122.995 356.271 120.985C355.971 120.4 355.564 119.877 355.071 119.441C354.064 118.803 352.885 118.489 351.694 118.544C351.423 118.511 351.148 118.538 350.889 118.624C350.673 118.717 350.483 118.862 350.335 119.046C349.955 119.522 349.677 120.07 349.516 120.657C349.355 121.245 349.315 121.859 349.399 122.462C349.649 125.113 351.219 128.253 353.765 129.361Z" fill="#F4DBBD"/>
<path d="M337.052 160.781L318.15 184.603C321.989 195.987 334.797 210.43 334.797 210.43L337.052 160.781Z" fill="#16D3FF"/>
<path d="M395.593 125.074C395.26 125.908 394.72 126.644 394.023 127.211C393.716 127.463 393.337 127.61 392.941 127.632C392.545 127.653 392.152 127.547 391.82 127.329C391.697 127.247 391.604 127.127 391.556 126.986C391.508 126.758 391.541 126.52 391.649 126.314L391.807 125.892C391.845 125.769 391.903 125.653 391.978 125.549C392.269 125.166 392.862 125.232 393.297 124.995C393.733 124.757 393.904 124.15 394.142 123.676C394.224 123.479 394.361 123.31 394.536 123.189C394.712 123.067 394.918 122.998 395.131 122.99C395.332 123.032 395.514 123.138 395.65 123.293C395.785 123.448 395.867 123.642 395.883 123.847C395.905 124.275 395.804 124.701 395.593 125.074Z" fill="#E0BE99"/>
<path d="M351.14 124.23C351.47 125.066 352.01 125.802 352.71 126.366C353.018 126.62 353.398 126.769 353.796 126.793C354.194 126.817 354.59 126.713 354.926 126.498C355.049 126.411 355.142 126.286 355.19 126.142C355.231 125.918 355.198 125.687 355.097 125.483L354.939 125.061C354.903 124.937 354.845 124.82 354.767 124.718C354.477 124.335 353.884 124.388 353.448 124.15C353.013 123.913 352.842 123.306 352.604 122.831C352.519 122.637 352.381 122.469 352.207 122.348C352.032 122.227 351.827 122.157 351.615 122.145C351.413 122.181 351.228 122.283 351.092 122.437C350.955 122.59 350.875 122.785 350.863 122.99C350.832 123.421 350.929 123.852 351.14 124.23Z" fill="#E0BE99"/>
<path d="M388.654 149.252L394.01 151.732L391.371 176.504L377.178 181.965C377.178 181.965 383.127 163.815 388.654 149.252Z" fill="url(#paint4_linear)"/>
<path d="M386.834 178.258L388.641 187.756L371.44 206.974L377.178 182.031L386.834 178.258Z" fill="url(#paint5_linear)"/>
<path d="M360.374 151.297L355.018 153.763L351.958 176.504L366.098 181.965C366.098 181.965 360.558 159.079 360.374 151.297Z" fill="url(#paint6_linear)"/>
<path d="M356.456 178.258L354.635 187.756L371.836 206.974L366.098 182.031L356.456 178.258Z" fill="url(#paint7_linear)"/>
<path d="M349.505 241.389L402.557 231.931L412.793 184.326V237.313V241.679L349.505 241.389Z" fill="url(#paint8_linear)"/>
<path d="M369.897 101.212C370.557 105.169 371.216 109.575 374.25 112.345C375.969 113.788 377.981 114.841 380.146 115.431C385.103 117.06 390.261 117.996 395.474 118.215C396.236 114.805 396.227 111.268 395.448 107.862C394.669 104.455 393.139 101.266 390.97 98.5272C388.8 95.788 386.047 93.5677 382.91 92.0285C379.773 90.4893 376.333 89.67 372.839 89.6305C363.75 89.3798 368.934 95.2892 369.897 101.212Z" fill="#FC682D"/>
<path d="M448.645 237.115H161.05V252.786H448.645V237.115Z" fill="white"/>
<path d="M378.405 331.692C376.515 333.585 375.158 335.943 374.468 338.527C373.778 341.111 373.781 343.832 374.476 346.415C375.171 348.998 376.534 351.352 378.428 353.241C380.322 355.13 382.68 356.488 385.264 357.176V360.659H201.914C198.088 360.659 194.359 359.452 191.258 357.209C188.158 354.966 185.845 351.802 184.648 348.167C184.026 346.318 183.71 344.38 183.711 342.429C183.709 340.038 184.179 337.67 185.093 335.461C186.007 333.252 187.348 331.245 189.039 329.554C190.729 327.863 192.737 326.522 194.946 325.608C197.155 324.694 199.523 324.224 201.914 324.226H385.264V327.709C382.666 328.406 380.299 329.78 378.405 331.692Z" fill="#16D3FF"/>
<path d="M385.264 357.176V360.659H201.914C198.088 360.659 194.359 359.452 191.258 357.209C188.158 354.966 185.845 351.802 184.648 348.167C191.612 349.394 235.709 356.425 260.257 342.429L375.239 348.563C376.155 350.66 377.532 352.524 379.267 354.016C381.003 355.507 383.053 356.587 385.264 357.176Z" fill="url(#paint9_linear)"/>
<path d="M378.405 331.692C376.516 333.585 375.158 335.943 374.468 338.527C373.778 341.111 373.781 343.832 374.476 346.415C375.172 348.998 376.535 351.352 378.428 353.241C380.322 355.13 382.68 356.488 385.264 357.176V357.691H275.492C273.454 357.751 271.425 357.401 269.525 356.663C267.625 355.925 265.893 354.813 264.43 353.393C262.968 351.972 261.805 350.273 261.011 348.396C260.217 346.518 259.808 344.501 259.808 342.462C259.808 340.424 260.217 338.406 261.011 336.529C261.805 334.651 262.968 332.952 264.43 331.532C265.893 330.112 267.625 329 269.525 328.262C271.425 327.523 273.454 327.174 275.492 327.234H385.264V327.735C382.668 328.425 380.302 329.79 378.405 331.692Z" fill="white"/>
<path d="M489.932 369.681C488.042 371.574 486.684 373.932 485.995 376.516C485.305 379.101 485.308 381.821 486.003 384.404C486.698 386.987 488.061 389.341 489.955 391.23C491.849 393.119 494.207 394.477 496.791 395.166V398.648H313.441C309.618 398.65 305.891 397.447 302.791 395.209C299.691 392.971 297.376 389.812 296.175 386.183C295.553 384.334 295.237 382.396 295.238 380.445C295.236 378.054 295.706 375.686 296.62 373.477C297.534 371.267 298.875 369.26 300.566 367.569C302.256 365.879 304.264 364.538 306.473 363.624C308.682 362.71 311.05 362.24 313.441 362.242H496.791V365.724C494.195 366.414 491.829 367.779 489.932 369.681Z" fill="#16D3FF"/>
<path d="M496.791 395.166V398.648H313.441C309.618 398.65 305.891 397.447 302.791 395.209C299.691 392.971 297.376 389.812 296.175 386.183C303.139 387.409 347.236 394.44 371.783 380.445L486.766 386.578C487.685 388.671 489.063 390.53 490.799 392.016C492.534 393.503 494.582 394.579 496.791 395.166Z" fill="url(#paint10_linear)"/>
<path d="M489.932 369.681C488.042 371.574 486.684 373.932 485.995 376.516C485.305 379.101 485.308 381.821 486.003 384.404C486.698 386.987 488.061 389.341 489.955 391.23C491.849 393.119 494.207 394.477 496.791 395.166V395.654H387.019C384.981 395.714 382.952 395.364 381.052 394.626C379.152 393.887 377.42 392.775 375.957 391.355C374.495 389.935 373.332 388.236 372.538 386.359C371.744 384.481 371.335 382.463 371.335 380.425C371.335 378.387 371.744 376.369 372.538 374.491C373.332 372.614 374.495 370.915 375.957 369.495C377.42 368.075 379.152 366.963 381.052 366.224C382.952 365.486 384.981 365.136 387.019 365.196H496.791V365.698C494.192 366.395 491.825 367.769 489.932 369.681Z" fill="white"/>
<path d="M259.425 156.507L237.437 103.903L262.209 157.061L259.425 156.507Z" fill="white"/>
<path d="M453.447 263.404C451.588 264.241 449.888 265.392 448.421 266.807C447.689 267.515 447.113 268.367 446.729 269.309C446.346 270.252 446.163 271.264 446.192 272.281C446.39 274.748 448.157 276.779 450.017 278.389C452.141 280.262 454.726 282.214 454.898 284.984C456.415 283.85 457.8 282.531 459.369 281.462C462.113 279.589 465.345 278.587 468.365 277.202C471.386 275.817 474.38 273.864 475.818 270.87C476.595 268.977 477.041 266.965 477.137 264.921C477.447 262.736 477.504 260.524 477.309 258.326C477.102 256.114 476.132 254.043 474.565 252.469C472.181 250.642 469.371 249.452 466.4 249.013C464.728 249.099 463.116 249.663 461.755 250.638C460.394 251.613 459.342 252.958 458.723 254.514C458.103 256.162 458.393 258.036 457.786 259.684C457.021 261.61 455.162 262.534 453.447 263.404Z" fill="#FC682D"/>
<path d="M385.08 363.139C384.484 363.127 383.891 363.216 383.325 363.402C383.043 363.5 382.794 363.676 382.607 363.909C382.42 364.143 382.303 364.424 382.27 364.722C382.294 365.012 382.389 365.292 382.548 365.536C382.707 365.78 382.924 365.981 383.18 366.12C383.668 366.436 384.235 366.621 384.723 366.951C385.135 367.293 385.577 367.597 386.043 367.861C386.878 368.112 387.773 368.079 388.588 367.769C392.389 366.842 396.323 366.597 400.209 367.043C400.586 367.089 400.967 367.089 401.344 367.043C401.897 366.883 402.401 366.585 402.807 366.176C403.213 365.768 403.509 365.263 403.665 364.708C404.444 362.347 404.674 359.838 404.338 357.374C404.333 357.099 404.266 356.828 404.14 356.583C403.983 356.391 403.785 356.238 403.56 356.134C399.88 354.314 397.861 357.955 395.157 359.735C392.149 361.722 388.677 362.895 385.08 363.139Z" fill="#FFBBAB"/>
<path d="M474.077 309.004C474.077 309.004 475 322.775 462.693 326.93C450.387 331.085 428.332 327.695 428.332 327.695C428.332 327.695 419.454 344.698 410.379 352.758L404.575 358.495C403.353 358.791 402.067 358.681 400.913 358.181C399.759 357.681 398.799 356.819 398.178 355.725C398.178 355.725 415.326 321.548 417.634 318.989C420.253 315.839 423.753 313.542 427.685 312.394L452.246 304.664L474.077 309.004Z" fill="#473F47"/>
<path d="M391.939 263.892L405.116 291.869L429.466 291.698L429.268 289.588L406.87 289.337L394.471 262.863L391.939 263.892Z" fill="#473F47"/>
<path d="M456.388 245.808C455.94 246.573 455.003 247.021 454.7 247.852C454.396 248.683 455.043 249.923 455.399 250.939C455.913 252.35 455.755 253.933 456.243 255.358C456.328 255.665 456.503 255.941 456.744 256.149C456.97 256.304 457.227 256.407 457.496 256.453C458.551 256.665 459.63 256.728 460.702 256.637C460.911 256.596 461.129 256.624 461.322 256.716C461.479 256.855 461.578 257.048 461.599 257.257C462.215 259.945 462.169 262.743 461.467 265.409C461.242 266.293 460.992 267.361 461.638 268.047C461.873 268.259 462.16 268.405 462.469 268.469C464.5 268.957 466.426 267.454 467.825 265.831C469.049 264.421 470.103 262.871 470.964 261.214C471.233 260.754 471.416 260.249 471.505 259.724C471.543 259.044 471.449 258.363 471.228 257.719C470.646 255.501 470.292 253.229 470.172 250.939C470.027 248.011 470.238 244.964 469.104 242.246C468.782 241.312 468.16 240.51 467.336 239.964C466.352 239.495 465.253 239.317 464.171 239.45C462.047 239.529 459.699 239.819 458.248 241.389C457.839 241.837 456.955 244.858 456.388 245.808Z" fill="#FFBBAB"/>
<path d="M471.333 259.909C471.333 259.909 462.561 264.446 459.91 268.008C457.259 271.569 452.932 274.194 454.634 280.934C456.335 287.675 454.264 297.964 454.264 297.964C454.264 297.964 458.077 309.954 467.455 312.988C476.834 316.022 474.248 315.059 474.248 315.059C474.248 315.059 479.221 292.832 481.173 286.646C483.126 280.46 479.828 258.919 471.333 259.909Z" fill="#16D3FF"/>
<path d="M459.211 241.086C459.386 242.531 460.074 243.865 461.15 244.845C462.192 245.808 463.472 246.48 464.553 247.404C465.123 247.831 465.578 248.394 465.875 249.041C466.172 249.688 466.303 250.4 466.255 251.11C466.669 250.946 467.127 250.931 467.551 251.068C467.975 251.205 468.338 251.486 468.577 251.862C468.687 252.127 468.723 252.418 468.678 252.702C468.634 252.986 468.512 253.253 468.326 253.472C468.135 253.685 467.898 253.853 467.633 253.962C467.368 254.072 467.082 254.121 466.796 254.105C467.905 254.558 468.855 255.329 469.526 256.321C470.278 257.429 470.647 258.748 471.333 259.909C472.18 261.081 473.241 262.084 474.46 262.863C475.006 263.232 475.458 263.725 475.779 264.301C476.029 265.198 476.333 266.079 476.689 266.939C477.468 268.038 478.304 269.095 479.195 270.105C480.4 271.869 481.089 273.933 481.187 276.067C481.127 275.435 481.127 274.799 481.187 274.168C481.407 273.798 481.618 273.416 481.82 273.02C482.157 272.329 482.418 271.604 482.598 270.857C482.851 269.145 482.9 267.409 482.743 265.686C482.743 261.993 486.226 255.041 483.429 251.875C482.315 250.943 481.129 250.1 479.881 249.356C477.414 247.312 477.071 243.71 475.515 240.914C474.824 239.683 473.896 238.601 472.785 237.732C471.673 236.862 470.399 236.222 469.038 235.849C465.398 234.807 458.723 235.954 459.211 241.086Z" fill="#FC682D"/>
<path d="M467.956 271.464C467.956 271.464 462.416 286.448 461.361 287.543C460.306 288.638 472.032 295.26 472.032 295.26C472.032 295.26 479.696 280.684 479.34 274.379C478.984 268.074 472.27 265.515 467.956 271.464Z" fill="#16D3FF"/>
<path d="M471.979 293.228C471.979 293.228 471.571 298.056 465.648 297.964L439.333 297.594C437.539 296.671 435.085 296.526 433.753 294.956C433.107 294.244 432.777 293.294 432.17 292.555C431.331 291.631 430.199 291.025 428.965 290.841C427.742 290.665 426.502 290.634 425.271 290.748C425.03 290.47 424.897 290.114 424.897 289.746C424.897 289.378 425.03 289.022 425.271 288.743C425.788 288.209 426.455 287.845 427.184 287.701C430.214 286.943 433.421 287.417 436.101 289.02C436.877 289.572 437.725 290.015 438.62 290.339C439.28 290.474 439.955 290.509 440.625 290.445C448.21 290.089 455.702 288.48 463.287 288.137C465.065 287.959 466.861 288.148 468.563 288.691C469.453 289.12 470.227 289.756 470.821 290.545C471.416 291.334 471.813 292.254 471.979 293.228Z" fill="#FFBBAB"/>
<path d="M387.362 294.837H383.629V363.139H387.362V294.837Z" fill="white"/>
<path d="M429.466 294.837H425.733V363.139H429.466V294.837Z" fill="white"/>
<path d="M431.524 291.87H379.249V297.805H431.524V291.87Z" fill="#16D3FF"/>
<path d="M431.524 291.87H379.249V297.805H431.524V291.87Z" fill="url(#paint11_linear)"/>
<path d="M475.132 326.112H441.113C440.312 326.112 439.662 326.762 439.662 327.563V333.486C439.662 334.287 440.312 334.937 441.113 334.937H475.132C475.933 334.937 476.583 334.287 476.583 333.486V327.563C476.583 326.762 475.933 326.112 475.132 326.112Z" fill="#473F47"/>
<path d="M446.904 334.937H440.665L437.552 363.811H443.791L446.904 334.937Z" fill="#473F47"/>
<path d="M478.641 363.811L474.512 334.937H468.273L473.457 363.811H478.641Z" fill="#473F47"/>
<path d="M487.835 277.69H482.242L469.605 326.337H475.198L487.835 277.69Z" fill="#473F47"/>
<path d="M160.047 334.937H194.066C194.867 334.937 195.517 334.287 195.517 333.486V327.563C195.517 326.762 194.867 326.112 194.066 326.112H160.047C159.246 326.112 158.596 326.762 158.596 327.563V333.486C158.596 334.287 159.246 334.937 160.047 334.937Z" fill="#473F47"/>
<path d="M188.275 334.937H194.514L197.627 363.811H191.388L188.275 334.937Z" fill="#473F47"/>
<path d="M156.538 363.811L160.667 334.937H166.906L161.722 363.811H156.538Z" fill="#473F47"/>
<path d="M147.344 277.69H152.937L165.574 326.337H159.981L147.344 277.69Z" fill="#473F47"/>
<path d="M315.895 369.694C314.005 371.588 312.647 373.945 311.957 376.529C311.268 379.114 311.271 381.834 311.966 384.417C312.661 387 314.024 389.354 315.918 391.244C317.811 393.133 320.169 394.49 322.754 395.179V398.661H139.404C135.58 398.663 131.854 397.46 128.754 395.222C125.654 392.984 123.339 389.826 122.137 386.196C121.516 384.347 121.199 382.409 121.201 380.458C121.199 378.067 121.669 375.699 122.583 373.49C123.497 371.281 124.838 369.273 126.528 367.583C128.219 365.892 130.226 364.551 132.436 363.637C134.645 362.723 137.013 362.253 139.404 362.255H322.754V365.737C320.158 366.427 317.791 367.792 315.895 369.694Z" fill="#16D3FF"/>
<path d="M322.754 395.179V398.661H139.404C135.58 398.663 131.854 397.46 128.754 395.222C125.654 392.984 123.339 389.826 122.137 386.196C129.102 387.423 173.198 394.453 197.746 380.458L312.729 386.592C313.647 388.684 315.026 390.543 316.761 392.029C318.497 393.516 320.545 394.593 322.754 395.179Z" fill="url(#paint12_linear)"/>
<path d="M315.895 369.694C314.005 371.588 312.647 373.945 311.957 376.529C311.268 379.114 311.271 381.834 311.966 384.417C312.661 387 314.024 389.354 315.918 391.244C317.811 393.133 320.169 394.49 322.754 395.179V395.654H212.981C210.944 395.714 208.915 395.364 207.015 394.626C205.115 393.887 203.382 392.775 201.92 391.355C200.457 389.935 199.295 388.236 198.501 386.359C197.707 384.481 197.298 382.463 197.298 380.425C197.298 378.387 197.707 376.369 198.501 374.491C199.295 372.614 200.457 370.915 201.92 369.495C203.382 368.075 205.115 366.963 207.015 366.224C208.915 365.486 210.944 365.136 212.981 365.196H322.754V365.698C320.154 366.399 317.787 367.778 315.895 369.694Z" fill="white"/>
<path d="M178.435 239.832L190.649 244.95L178.435 249.739V239.832Z" fill="#16D3FF"/>
<path d="M438.475 243.315H195.596V246.573H438.475V243.315Z" fill="#16D3FF"/>
<path d="M162.857 309.373C162.857 309.373 161.933 323.145 174.24 327.3C183.025 330.267 193.103 329.621 202.204 328.817C203.669 328.685 206.294 327.946 207.586 328.922C209.407 330.241 208.496 333.921 208.444 335.913C208.325 340.24 208.219 344.553 208.101 348.88C208.101 350.871 208.101 352.916 207.942 354.894C207.784 356.873 207.296 359.195 207.151 361.384C207.132 361.476 207.133 361.57 207.154 361.661C207.174 361.752 207.214 361.837 207.27 361.912C207.345 361.971 207.432 362.015 207.525 362.04C207.618 362.065 207.715 362.071 207.811 362.057L223.93 361.358C224.103 361.378 224.278 361.33 224.418 361.226C224.655 361.002 224.497 360.606 224.312 360.342C222.65 358.2 220.334 356.657 217.717 355.95C217.099 355.795 216.511 355.541 215.976 355.198C214.3 353.879 215.685 351.043 216.068 349.447L217.73 342.508L221.001 328.869C221.977 324.833 222.215 321.76 219.102 318.95C216.3 316.174 212.91 314.064 209.182 312.777L184.635 305.047L162.857 309.373Z" fill="#473F47"/>
<path d="M259.848 263.892L246.67 291.869L222.32 291.698L222.518 289.588L244.903 289.337L257.302 262.863L259.848 263.892Z" fill="#473F47"/>
<path d="M195.385 245.808C195.846 246.573 196.783 247.021 197.086 247.852C197.39 248.683 196.743 249.923 196.374 250.939C195.873 252.35 196.031 253.933 195.543 255.358C195.458 255.666 195.284 255.941 195.042 256.149C194.815 256.302 194.559 256.405 194.29 256.453C193.236 256.665 192.156 256.728 191.085 256.637C190.875 256.596 190.657 256.624 190.465 256.716C190.307 256.855 190.208 257.048 190.188 257.257C189.567 259.944 189.608 262.741 190.306 265.409C190.544 266.293 190.794 267.361 190.148 268.047C189.913 268.259 189.627 268.405 189.317 268.469C187.286 268.957 185.36 267.454 183.962 265.831C182.737 264.421 181.684 262.871 180.822 261.214C180.553 260.754 180.37 260.249 180.282 259.724C180.244 259.044 180.338 258.363 180.558 257.719C181.136 255.5 181.486 253.229 181.601 250.939C181.759 248.011 181.601 244.964 182.669 242.246C182.997 241.311 183.622 240.509 184.45 239.964C185.43 239.496 186.524 239.317 187.602 239.45C189.739 239.529 192.074 239.819 193.525 241.389C193.947 241.837 194.831 244.858 195.385 245.808Z" fill="#FFBBAB"/>
<path d="M180.4 259.961H180.585C184.463 260.924 190.109 264.459 191.375 268.39C192.971 273.324 194.013 279.958 192.865 285.063C192.087 288.532 190.227 291.659 189.185 295.062C188.301 297.871 187.932 300.852 186.771 303.556C185.322 306.7 182.883 309.282 179.826 310.907C176.769 312.532 173.264 313.11 169.848 312.553C168.035 312.245 166.326 311.492 164.875 310.363C163.558 309.138 162.542 307.626 161.903 305.945C161.265 304.263 161.023 302.458 161.195 300.668C161.583 297.089 162.521 293.592 163.978 290.3L170.019 274.537C171.483 270.765 175.032 258.893 180.4 259.961Z" fill="#16D3FF"/>
<path d="M177.274 298.729C177.613 299.295 177.838 299.922 177.934 300.575C177.952 301.056 177.894 301.537 177.762 302C177.141 304.563 176.879 307.2 176.984 309.835C176.943 310.311 177.09 310.785 177.393 311.154C177.735 311.399 178.146 311.528 178.567 311.524C180.075 311.769 181.622 311.615 183.052 311.075C184.591 310.108 185.751 308.641 186.336 306.92C188.269 302.134 189.74 297.173 190.729 292.107C190.978 291.296 191.058 290.444 190.966 289.601C190.804 288.975 190.52 288.387 190.131 287.871C189.742 287.355 189.254 286.921 188.697 286.593C187.642 285.868 186.442 285.34 185.426 284.549C183.421 283.019 181.944 280.235 179.213 279.879C178.269 279.811 177.331 280.073 176.561 280.622C175.79 281.172 175.235 281.972 174.992 282.887C173.198 287.622 175.124 294.389 177.274 298.729Z" fill="url(#paint13_linear)"/>
<path d="M183.843 271.464C183.843 271.464 189.383 286.448 190.438 287.543C191.494 288.638 179.78 295.26 179.78 295.26C179.78 295.26 172.103 280.684 172.473 274.379C172.842 268.074 179.516 265.515 183.843 271.464Z" fill="#16D3FF"/>
<path d="M179.807 293.228C179.807 293.228 180.216 298.056 186.125 297.964L212.506 297.594C214.287 296.671 216.74 296.526 218.086 294.956C218.719 294.244 219.049 293.294 219.669 292.555C220.507 291.631 221.64 291.025 222.874 290.841C224.097 290.665 225.337 290.634 226.567 290.748C226.806 290.469 226.937 290.113 226.937 289.746C226.937 289.378 226.806 289.023 226.567 288.743C226.049 288.212 225.383 287.849 224.655 287.701C221.625 286.943 218.418 287.417 215.738 289.02C214.962 289.572 214.114 290.015 213.219 290.339C212.559 290.474 211.883 290.509 211.214 290.445C203.629 290.089 196.137 288.48 188.552 288.137C186.774 287.962 184.979 288.151 183.276 288.691C182.375 289.112 181.589 289.744 180.985 290.534C180.381 291.324 179.977 292.248 179.807 293.228Z" fill="#FFBBAB"/>
<path d="M218.337 294.837H214.604V363.139H218.337V294.837Z" fill="white"/>
<path d="M260.454 294.837H256.721V363.139H260.454V294.837Z" fill="white"/>
<path d="M262.499 291.87H210.224V297.805H262.499V291.87Z" fill="#16D3FF"/>
<path d="M262.499 291.87H210.224V297.805H262.499V291.87Z" fill="url(#paint14_linear)"/>
<path d="M193.591 233.831C192.957 232.856 192.102 232.043 191.096 231.459C190.09 230.875 188.961 230.535 187.8 230.467C187.022 230.351 186.228 230.401 185.471 230.615C184.713 230.829 184.01 231.201 183.408 231.707C182.933 232.182 182.577 232.775 182.089 233.237C180.677 234.556 178.501 234.398 176.812 235.202C175.287 235.995 174.115 237.332 173.528 238.949C172.954 240.556 172.634 242.242 172.578 243.948C172.39 245.507 172.475 247.087 172.829 248.617C173.167 249.748 173.762 250.786 174.567 251.648C175.373 252.511 176.367 253.176 177.472 253.59C177.997 253.715 178.482 253.969 178.883 254.329C179.2 254.685 179.305 255.199 179.609 255.569C180.361 256.492 181.864 256.149 182.801 255.424C183.614 254.566 184.542 253.824 185.558 253.221L182.92 249.646C182.581 249.29 182.388 248.819 182.379 248.327C182.459 248.042 182.632 247.792 182.871 247.617C183.111 247.442 183.402 247.353 183.698 247.364C184.292 247.418 184.852 247.663 185.294 248.063C185.677 248.38 186.257 248.736 186.613 248.367C186.721 248.252 186.787 248.102 186.798 247.945C187.088 246.177 185.479 244.423 185.954 242.668C185.991 242.509 186.079 242.365 186.204 242.259C186.39 242.161 186.606 242.132 186.811 242.18C187.862 242.351 188.932 242.378 189.99 242.259C193.327 241.64 195.253 236.693 193.591 233.831Z" fill="#473F47"/>
<path d="M188.816 271.055C188.816 271.701 188.816 272.519 188.143 272.677C187.879 272.722 187.608 272.685 187.365 272.572C186.355 272.216 185.397 271.728 184.516 271.121C184.743 276.578 185.49 282.002 186.745 287.319C186.798 287.621 186.915 287.909 187.088 288.163C187.278 288.345 187.504 288.486 187.752 288.577C187.999 288.668 188.263 288.706 188.526 288.691C189.825 288.758 191.124 288.57 192.351 288.137C189.08 282.702 188.935 275.803 190.781 269.749C191.169 268.875 191.27 267.901 191.071 266.966C190.709 266.318 190.213 265.754 189.618 265.311C189.022 264.867 188.34 264.555 187.615 264.393C187.22 266.385 188.658 269.023 188.816 271.055Z" fill="url(#paint15_linear)"/>
</g>
<defs>
<linearGradient id="paint0_linear" x1="296.016" y1="265.29" x2="304.696" y2="382.265" gradientUnits="userSpaceOnUse">
<stop offset="0.01"/>
<stop offset="0.08" stop-opacity="0.69"/>
<stop offset="0.21" stop-opacity="0.32"/>
<stop offset="1" stop-opacity="0"/>
</linearGradient>
<linearGradient id="paint1_linear" x1="16611.9" y1="14884.3" x2="27989.1" y2="10327.7" gradientUnits="userSpaceOnUse">
<stop offset="0.01"/>
<stop offset="0.08" stop-opacity="0.69"/>
<stop offset="0.21" stop-opacity="0.32"/>
<stop offset="1" stop-opacity="0"/>
</linearGradient>
<linearGradient id="paint2_linear" x1="-198694" y1="27655.7" x2="-199314" y2="10413.4" gradientUnits="userSpaceOnUse">
<stop offset="0.01"/>
<stop offset="0.08" stop-opacity="0.69"/>
<stop offset="0.21" stop-opacity="0.32"/>
<stop offset="1" stop-opacity="0"/>
</linearGradient>
<linearGradient id="paint3_linear" x1="-26328.7" y1="6386.09" x2="-25863.7" y2="6319.66" gradientUnits="userSpaceOnUse">
<stop offset="0.01"/>
<stop offset="0.08" stop-opacity="0.69"/>
<stop offset="0.21" stop-opacity="0.32"/>
<stop offset="1" stop-opacity="0"/>
</linearGradient>
<linearGradient id="paint4_linear" x1="-38498.6" y1="6897.25" x2="-39224.8" y2="6505.15" gradientUnits="userSpaceOnUse">
<stop offset="0.01"/>
<stop offset="0.08" stop-opacity="0.69"/>
<stop offset="0.21" stop-opacity="0.32"/>
<stop offset="1" stop-opacity="0"/>
</linearGradient>
<linearGradient id="paint5_linear" x1="-39452.4" y1="6430.5" x2="-40023.3" y2="6192.63" gradientUnits="userSpaceOnUse">
<stop offset="0.01"/>
<stop offset="0.08" stop-opacity="0.69"/>
<stop offset="0.21" stop-opacity="0.32"/>
<stop offset="1" stop-opacity="0"/>
</linearGradient>
<linearGradient id="paint6_linear" x1="-7948.15" y1="6531.83" x2="-7236.16" y2="6187.46" gradientUnits="userSpaceOnUse">
<stop offset="0.01"/>
<stop offset="0.08" stop-opacity="0.69"/>
<stop offset="0.21" stop-opacity="0.32"/>
<stop offset="1" stop-opacity="0"/>
</linearGradient>
<linearGradient id="paint7_linear" x1="-10002" y1="6430.5" x2="-9430.94" y2="6192.66" gradientUnits="userSpaceOnUse">
<stop offset="0.01"/>
<stop offset="0.08" stop-opacity="0.69"/>
<stop offset="0.21" stop-opacity="0.32"/>
<stop offset="1" stop-opacity="0"/>
</linearGradient>
<linearGradient id="paint8_linear" x1="-153746" y1="10901.6" x2="-154902" y2="20632.9" gradientUnits="userSpaceOnUse">
<stop offset="0.01"/>
<stop offset="0.08" stop-opacity="0.69"/>
<stop offset="0.21" stop-opacity="0.32"/>
<stop offset="1" stop-opacity="0"/>
</linearGradient>
<linearGradient id="paint9_linear" x1="50818.3" y1="4693.44" x2="50877.9" y2="10205.2" gradientUnits="userSpaceOnUse">
<stop offset="0.01"/>
<stop offset="0.08" stop-opacity="0.69"/>
<stop offset="0.21" stop-opacity="0.32"/>
<stop offset="1" stop-opacity="0"/>
</linearGradient>
<linearGradient id="paint10_linear" x1="67893.9" y1="5249.41" x2="67953.4" y2="10753.2" gradientUnits="userSpaceOnUse">
<stop offset="0.01"/>
<stop offset="0.08" stop-opacity="0.69"/>
<stop offset="0.21" stop-opacity="0.32"/>
<stop offset="1" stop-opacity="0"/>
</linearGradient>
<linearGradient id="paint11_linear" x1="15541.5" y1="1468.46" x2="15541.9" y2="1844.52" gradientUnits="userSpaceOnUse">
<stop offset="0.01"/>
<stop offset="0.08" stop-opacity="0.69"/>
<stop offset="0.21" stop-opacity="0.32"/>
<stop offset="1" stop-opacity="0"/>
</linearGradient>
<linearGradient id="paint12_linear" x1="41250.5" y1="5249.42" x2="41310" y2="10753.2" gradientUnits="userSpaceOnUse">
<stop offset="0.01"/>
<stop offset="0.08" stop-opacity="0.69"/>
<stop offset="0.21" stop-opacity="0.32"/>
<stop offset="1" stop-opacity="0"/>
</linearGradient>
<linearGradient id="paint13_linear" x1="2981.36" y1="9719.57" x2="3853.63" y2="9665.8" gradientUnits="userSpaceOnUse">
<stop offset="0.01"/>
<stop offset="0.08" stop-opacity="0.69"/>
<stop offset="0.21" stop-opacity="0.32"/>
<stop offset="1" stop-opacity="0"/>
</linearGradient>
<linearGradient id="paint14_linear" x1="8680.79" y1="1563.2" x2="8680.98" y2="1722.83" gradientUnits="userSpaceOnUse">
<stop offset="0.01"/>
<stop offset="0.08" stop-opacity="0.69"/>
<stop offset="0.21" stop-opacity="0.32"/>
<stop offset="1" stop-opacity="0"/>
</linearGradient>
<linearGradient id="paint15_linear" x1="1899.57" y1="7296.21" x2="1269.73" y2="7234.7" gradientUnits="userSpaceOnUse">
<stop offset="0.01"/>
<stop offset="0.08" stop-opacity="0.69"/>
<stop offset="0.21" stop-opacity="0.32"/>
<stop offset="1" stop-opacity="0"/>
</linearGradient>
<clipPath id="clip0">
<rect width="563" height="424.33" fill="white"/>
</clipPath>
</defs>
</svg>
